<mxfile host="app.diagrams.net" agent="Mozilla/5.0 (Windows NT 10.0; Win64; x64; rv:130.0) Gecko/20100101 Firefox/130.0" version="24.7.16">
  <diagram name="Page-1" id="VRV_l7L2dsTEDS94kJ7T">
    <mxGraphModel dx="7891" dy="5725" grid="1" gridSize="10" guides="1" tooltips="1" connect="1" arrows="1" fold="1" page="1" pageScale="1" pageWidth="827" pageHeight="1169" math="1" shadow="0">
      <root>
        <mxCell id="0" />
        <mxCell id="1" parent="0" />
        <mxCell id="sztHTLTX0g_QSmzLnJmy-1" value="" style="html=1;verticalLabelPosition=bottom;align=center;labelBackgroundColor=#ffffff;verticalAlign=top;strokeWidth=2;strokeColor=none;shadow=0;dashed=0;shape=mxgraph.ios7.icons.home;fillColor=#000000;" vertex="1" parent="1">
          <mxGeometry x="510" y="-340" width="534.71" height="681.72" as="geometry" />
        </mxCell>
        <mxCell id="sztHTLTX0g_QSmzLnJmy-3" value="" style="verticalLabelPosition=bottom;html=1;verticalAlign=top;align=center;strokeColor=none;fillColor=#000000;shape=mxgraph.azure.enterprise;pointerEvents=1;" vertex="1" parent="1">
          <mxGeometry x="1890" y="-1019" width="1047.93" height="1634.75" as="geometry" />
        </mxCell>
        <mxCell id="sztHTLTX0g_QSmzLnJmy-5" value="" style="shape=image;html=1;verticalAlign=top;verticalLabelPosition=bottom;labelBackgroundColor=#ffffff;imageAspect=0;aspect=fixed;image=https://cdn0.iconfinder.com/data/icons/phosphor-fill-vol-4/256/tree-evergreen-fill-128.png" vertex="1" parent="1">
          <mxGeometry x="42" y="-30" width="378" height="378" as="geometry" />
        </mxCell>
        <mxCell id="sztHTLTX0g_QSmzLnJmy-11" value="" style="endArrow=none;html=1;rounded=1;strokeWidth=27;curved=0;strokeColor=#FF8000;" edge="1" parent="1">
          <mxGeometry width="50" height="50" relative="1" as="geometry">
            <mxPoint x="-490" y="320" as="sourcePoint" />
            <mxPoint x="4000" y="310" as="targetPoint" />
            <Array as="points">
              <mxPoint x="60" y="320" />
              <mxPoint x="60" y="190" />
              <mxPoint x="90" y="60" />
              <mxPoint x="230" y="-90" />
              <mxPoint x="370" y="60" />
              <mxPoint x="420" y="190" />
              <mxPoint x="420" y="330" />
              <mxPoint x="520" y="330" />
              <mxPoint x="520" y="-70" />
              <mxPoint x="580" y="-140" />
              <mxPoint x="580" y="-290" />
              <mxPoint x="670" y="-290" />
              <mxPoint x="670" y="-230" />
              <mxPoint x="780" y="-340" />
              <mxPoint x="1040" y="-60" />
              <mxPoint x="1040" y="320" />
              <mxPoint x="1410" y="320" />
              <mxPoint x="1860" y="570" />
              <mxPoint x="1860" y="-1050" />
              <mxPoint x="2480" y="-1050" />
              <mxPoint x="2480" y="-510" />
              <mxPoint x="2530" y="-510" />
              <mxPoint x="2530" y="-680" />
              <mxPoint x="2610" y="-680" />
              <mxPoint x="2610" y="-840" />
              <mxPoint x="2670" y="-840" />
              <mxPoint x="2670" y="-990" />
              <mxPoint x="2760" y="-990" />
              <mxPoint x="2760" y="-840" />
              <mxPoint x="2820" y="-840" />
              <mxPoint x="2820" y="-680" />
              <mxPoint x="2900" y="-680" />
              <mxPoint x="2900" y="-510" />
              <mxPoint x="2970" y="-510" />
              <mxPoint x="2970" y="590" />
              <mxPoint x="3080" y="590" />
              <mxPoint x="3620" y="310" />
            </Array>
          </mxGeometry>
        </mxCell>
        <mxCell id="sztHTLTX0g_QSmzLnJmy-12" value="" style="endArrow=none;html=1;rounded=1;strokeWidth=27;curved=0;strokeColor=#0066CC;" edge="1" parent="1">
          <mxGeometry width="50" height="50" relative="1" as="geometry">
            <mxPoint x="-490" y="360" as="sourcePoint" />
            <mxPoint x="4001" y="360" as="targetPoint" />
            <Array as="points">
              <mxPoint x="1400" y="370" />
              <mxPoint x="1870" y="640" />
              <mxPoint x="3090" y="640" />
              <mxPoint x="3620" y="360" />
            </Array>
          </mxGeometry>
        </mxCell>
        <mxCell id="sztHTLTX0g_QSmzLnJmy-14" value="&lt;font style=&quot;font-size: 150px;&quot;&gt;\(\mathrm{DTM}\)&lt;/font&gt;" style="text;html=1;align=center;verticalAlign=middle;whiteSpace=wrap;rounded=0;" vertex="1" parent="1">
          <mxGeometry x="-480" y="420" width="450" height="190" as="geometry" />
        </mxCell>
        <mxCell id="sztHTLTX0g_QSmzLnJmy-15" value="&lt;font style=&quot;font-size: 150px;&quot;&gt;\(\mathrm{DSM}\)&lt;/font&gt;" style="text;html=1;align=center;verticalAlign=middle;whiteSpace=wrap;rounded=0;" vertex="1" parent="1">
          <mxGeometry x="-480" y="100" width="450" height="190" as="geometry" />
        </mxCell>
      </root>
    </mxGraphModel>
  </diagram>
</mxfile>
